<svg xmlns="http://www.w3.org/2000/svg" width="298.48" height="131.08" viewBox="0 0 298.48 131.08">
  <g id="Peak_logo-01" transform="translate(-150.76 -234.46)">
    <g id="Group_1" data-name="Group 1" class="name">
      <path id="Path_1" data-name="Path 1" d="M150.76,337.06V247.75H199.9a30.657,30.657,0,0,1,15.54,3.7,25.12,25.12,0,0,1,9.88,10.27,36.245,36.245,0,0,1-.13,31.14,25.466,25.466,0,0,1-10.14,10.33,31.4,31.4,0,0,1-15.67,3.71H174.03v30.16Zm23.27-48.1h19.89q5.46,0,8.32-3.06t2.86-8.51a14.313,14.313,0,0,0-1.23-6.37,8.793,8.793,0,0,0-3.71-3.83,12.807,12.807,0,0,0-6.24-1.37H174.03v23.14Z" fill="#40046e"/>
      <path id="Path_2" data-name="Path 2" d="M264.9,338.62q-11.7,0-19.89-3.83a27.025,27.025,0,0,1-12.54-11.76q-4.35-7.935-4.36-20.28,0-12.09,4.29-20.02a27.19,27.19,0,0,1,12.35-11.83q8.055-3.9,19.37-3.9,11.175,0,18.92,3.77a25.494,25.494,0,0,1,11.76,11.57q4.035,7.8,4.03,20.15v4.55H249.69a24.158,24.158,0,0,0,1.56,9.23,11.631,11.631,0,0,0,4.81,5.72,16.852,16.852,0,0,0,8.71,1.95,19.021,19.021,0,0,0,5.72-.78,11.506,11.506,0,0,0,4.16-2.27,10.162,10.162,0,0,0,2.6-3.58,11.528,11.528,0,0,0,.91-4.68h20.67a25.967,25.967,0,0,1-2.28,11.12,21.471,21.471,0,0,1-6.7,8.19,30.99,30.99,0,0,1-10.72,5A55.289,55.289,0,0,1,264.9,338.62ZM249.82,295.2h27.3a18.619,18.619,0,0,0-.85-5.92,10.943,10.943,0,0,0-2.47-4.22,10.431,10.431,0,0,0-3.9-2.54,15.176,15.176,0,0,0-5.27-.84,17.365,17.365,0,0,0-7.8,1.56,11.133,11.133,0,0,0-4.81,4.55A20.094,20.094,0,0,0,249.82,295.2Z" fill="#40046e"/>
      <path id="Path_3" data-name="Path 3" d="M324.44,338.62a41.671,41.671,0,0,1-8.39-.84,21.437,21.437,0,0,1-7.41-2.99,15.144,15.144,0,0,1-5.26-5.92,20.52,20.52,0,0,1-1.95-9.49q0-7.41,3.12-12.09a20.774,20.774,0,0,1,9.04-7.35,49.888,49.888,0,0,1,14.3-3.71,154.327,154.327,0,0,1,18.79-1.04V290.9a9.814,9.814,0,0,0-1.17-5,7.834,7.834,0,0,0-3.45-3.12,13.9,13.9,0,0,0-6.04-1.1,20.225,20.225,0,0,0-5.92.78,8.091,8.091,0,0,0-3.83,2.27,5.263,5.263,0,0,0-1.3,3.58v1.17h-20.8a5.483,5.483,0,0,1-.13-1.1v-1.24a16.078,16.078,0,0,1,3.83-10.66,24.44,24.44,0,0,1,10.99-7.02,60.835,60.835,0,0,1,33.87-.13,24.338,24.338,0,0,1,11.18,7.15q4.1,4.815,4.09,12.61v29.25a4.871,4.871,0,0,0,1.24,3.51,4.023,4.023,0,0,0,3.05,1.3h4.42v13.13a34.432,34.432,0,0,1-4.48,1.5,28.048,28.048,0,0,1-7.35.84,24.639,24.639,0,0,1-7.73-1.1,14.525,14.525,0,0,1-5.46-3.12,10.155,10.155,0,0,1-2.92-4.75h-.91a30.07,30.07,0,0,1-5.79,4.68,26.716,26.716,0,0,1-7.67,3.19A41.121,41.121,0,0,1,324.44,338.62Zm7.93-14.69a17.115,17.115,0,0,0,5.72-.91,13.625,13.625,0,0,0,4.48-2.54,11.884,11.884,0,0,0,2.99-3.96,11.678,11.678,0,0,0,1.11-5.07V306.9a67.748,67.748,0,0,0-12.74,1.04,19.443,19.443,0,0,0-8.19,3.25,6.776,6.776,0,0,0-2.86,5.59,6.614,6.614,0,0,0,1.23,4.1,6.867,6.867,0,0,0,3.32,2.34A15.156,15.156,0,0,0,332.37,323.93Z" fill="#40046e"/>
      <path id="Path_4" data-name="Path 4" d="M427.92,337.06V319.64l-9.49-9.23-15.21,26.65H378.91l25.22-41.34-52.39-61.26H376.7l51.22,61.65v-53.3h21.32v94.25Z" fill="#40046e"/>
    </g>
    <g id="Group_2" data-name="Group 2" class="slogan">
      <path id="Path_5" data-name="Path 5" d="M150.76,365.23V347.47h8.93a6.081,6.081,0,0,1,2.65.52,3.97,3.97,0,0,1,1.7,1.48,4.214,4.214,0,0,1,.6,2.28,4.926,4.926,0,0,1-.35,1.86,3.962,3.962,0,0,1-.98,1.44,4.041,4.041,0,0,1-1.49.87v.1a4.93,4.93,0,0,1,1.66.72,3.768,3.768,0,0,1,1.2,1.41,5.953,5.953,0,0,1-.26,5.09,3.952,3.952,0,0,1-1.93,1.53,7.786,7.786,0,0,1-2.8.47h-8.93Zm2.04-10h6.58a3.452,3.452,0,0,0,1.64-.38,2.9,2.9,0,0,0,1.13-1.07,3.063,3.063,0,0,0,.41-1.61,2.828,2.828,0,0,0-.82-2.23,3.131,3.131,0,0,0-2.16-.72H152.8Zm0,8.23h7.02a3.546,3.546,0,0,0,2.34-.74,3.053,3.053,0,0,0,.89-2.5,3.86,3.86,0,0,0-.39-1.84,2.349,2.349,0,0,0-1.14-1.06,4.7,4.7,0,0,0-1.89-.34H152.8Z" fill="#40046e"/>
      <path id="Path_6" data-name="Path 6" d="M171.08,365.23V347.47h13.59v1.76H173.12v6.01h10.41v1.79H173.12v6.45h11.7v1.76H171.08Z" fill="#40046e"/>
      <path id="Path_7" data-name="Path 7" d="M195.96,365.23V357.8l-7.07-10.33h2.3l5.77,8.52h.1l5.75-8.52h2.25l-7.07,10.33v7.43Z" fill="#40046e"/>
      <path id="Path_8" data-name="Path 8" d="M217.58,365.54a10.25,10.25,0,0,1-4.73-1.02,6.942,6.942,0,0,1-3.04-3.07,12.823,12.823,0,0,1,0-10.21,7,7,0,0,1,3.04-3.05,11.524,11.524,0,0,1,9.48,0,6.926,6.926,0,0,1,3.03,3.05,12.935,12.935,0,0,1,0,10.21,6.921,6.921,0,0,1-3.03,3.07A10.406,10.406,0,0,1,217.58,365.54Zm0-1.76a8.911,8.911,0,0,0,2.77-.4,5.145,5.145,0,0,0,2.12-1.28,5.869,5.869,0,0,0,1.36-2.23,9.7,9.7,0,0,0,.48-3.24v-.54a9.747,9.747,0,0,0-.48-3.26,5.869,5.869,0,0,0-1.36-2.23,5.21,5.21,0,0,0-2.12-1.28,8.911,8.911,0,0,0-2.77-.4,8.8,8.8,0,0,0-2.76.4,5.24,5.24,0,0,0-2.11,1.28,5.869,5.869,0,0,0-1.36,2.23,9.788,9.788,0,0,0-.48,3.26v.54a9.7,9.7,0,0,0,.48,3.24,5.869,5.869,0,0,0,1.36,2.23,5.24,5.24,0,0,0,2.11,1.28A9.1,9.1,0,0,0,217.58,363.78Z" fill="#40046e"/>
      <path id="Path_9" data-name="Path 9" d="M232.52,365.23V347.47h1.99l9.09,12.27c.1.12.23.29.38.49s.29.42.44.63.27.41.38.58h.13V347.46h1.99v17.76h-1.79l-9.27-12.53c-.12-.17-.31-.44-.57-.82s-.48-.69-.67-.95h-.1v14.29h-2Z" fill="#40046e"/>
      <path id="Path_10" data-name="Path 10" d="M253.93,365.23V347.47h6.39a11.465,11.465,0,0,1,4.83.92,6.435,6.435,0,0,1,3.03,2.87,12.765,12.765,0,0,1,0,10.14,6.5,6.5,0,0,1-3.03,2.9,11.307,11.307,0,0,1-4.83.93h-6.39Zm2.04-1.77h4.27a9.733,9.733,0,0,0,2.85-.38,5.519,5.519,0,0,0,2.17-1.19,5.126,5.126,0,0,0,1.37-2.11,9.293,9.293,0,0,0,.47-3.13v-.54a9.605,9.605,0,0,0-.47-3.2,5.081,5.081,0,0,0-1.36-2.12,5.549,5.549,0,0,0-2.16-1.19,10.125,10.125,0,0,0-2.87-.38h-4.27v14.24Z" fill="#40046e"/>
      <path id="Path_11" data-name="Path 11" d="M290.66,365.54a9.681,9.681,0,0,1-4.6-1.01,6.532,6.532,0,0,1-2.85-3.06,11.887,11.887,0,0,1-.97-5.13q0-4.605,2.23-6.9a8.275,8.275,0,0,1,6.24-2.29,10.343,10.343,0,0,1,4.05.74,6.062,6.062,0,0,1,2.74,2.2,6.49,6.49,0,0,1,1,3.71h-2.07a4.959,4.959,0,0,0-.7-2.76,4.278,4.278,0,0,0-1.98-1.61,8.074,8.074,0,0,0-3.07-.53,7.063,7.063,0,0,0-3.34.75,5.062,5.062,0,0,0-2.2,2.34,9.481,9.481,0,0,0-.78,4.15v.54a9.06,9.06,0,0,0,.78,4.06,4.92,4.92,0,0,0,2.2,2.28,7.378,7.378,0,0,0,3.37.72,8.164,8.164,0,0,0,3.08-.53,4.15,4.15,0,0,0,1.99-1.61,4.959,4.959,0,0,0,.7-2.76h2.02a6.433,6.433,0,0,1-1.02,3.75,6.127,6.127,0,0,1-2.78,2.19A9.872,9.872,0,0,1,290.66,365.54Z" fill="#40046e"/>
      <path id="Path_12" data-name="Path 12" d="M304.49,365.23V347.47h9.32a5.8,5.8,0,0,1,2.91.66,4.308,4.308,0,0,1,1.74,1.8,5.58,5.58,0,0,1,.58,2.59,5.648,5.648,0,0,1-.87,3.2,4.709,4.709,0,0,1-2.29,1.85l3.78,7.66h-2.25l-3.55-7.3h-7.33v7.3Zm2.04-9.07h7.07a3.247,3.247,0,0,0,2.49-.97,3.8,3.8,0,0,0,.91-2.68,3.662,3.662,0,0,0-.39-1.76,2.759,2.759,0,0,0-1.14-1.13,3.878,3.878,0,0,0-1.86-.4h-7.07v6.94Z" fill="#40046e"/>
      <path id="Path_13" data-name="Path 13" d="M325.77,365.23V347.47h13.59v1.76H327.81v6.01h10.41v1.79H327.81v6.45h11.7v1.76H325.77Z" fill="#40046e"/>
      <path id="Path_14" data-name="Path 14" d="M343.53,365.23l7.07-17.76h2.74l7.09,17.76h-2.2l-1.86-4.69h-8.91l-1.84,4.69Zm4.63-6.45h7.51l-2.33-5.93c-.05-.14-.13-.34-.23-.62s-.22-.59-.35-.94-.26-.71-.39-1.07-.25-.69-.38-.98h-.18c-.1.33-.24.72-.4,1.16s-.33.89-.49,1.33-.31.82-.43,1.13Z" fill="#40046e"/>
      <path id="Path_15" data-name="Path 15" d="M367.4,365.23V349.26h-6.29v-1.79h14.68v1.79h-6.34v15.97Z" fill="#40046e"/>
      <path id="Path_16" data-name="Path 16" d="M380.88,365.23V347.47h2.05v17.76Z" fill="#40046e"/>
      <path id="Path_17" data-name="Path 17" d="M394.55,365.23l-6.71-17.76h2.2l4.74,12.74c.1.28.22.59.34.94s.24.7.36,1.04.22.64.31.92h.18c.09-.26.19-.56.31-.89s.24-.68.36-1.04.23-.67.34-.94l4.69-12.76h2.15l-6.73,17.76h-2.54Z" fill="#40046e"/>
      <path id="Path_18" data-name="Path 18" d="M408.77,365.23V347.47h2.05v17.76Z" fill="#40046e"/>
      <path id="Path_19" data-name="Path 19" d="M422.18,365.23V349.26h-6.29v-1.79h14.68v1.79h-6.34v15.97Z" fill="#40046e"/>
      <path id="Path_20" data-name="Path 20" d="M440.12,365.23V357.8l-7.07-10.33h2.3l5.77,8.52h.1l5.75-8.52h2.25l-7.07,10.33v7.43Z" fill="#40046e"/>
    </g>
  </g>
</svg>
