<svg width="300" height="132" viewBox="0 0 300 132" fill="none" xmlns="http://www.w3.org/2000/svg">
<path d="M0.759766 103.06V13.75H49.8998C55.9698 13.75 61.1498 14.98 65.4398 17.45C69.7298 19.92 73.0198 23.35 75.3198 27.72C77.6198 32.1 78.7698 37.23 78.7698 43.13C78.7698 49.2 77.5798 54.4399 75.1898 58.8599C72.8098 63.2799 69.4298 66.73 65.0498 69.19C60.6698 71.66 55.4498 72.8999 49.3798 72.8999H24.0298V103.06H0.759766ZM24.0298 54.9599H43.9198C47.5598 54.9599 50.3298 53.9399 52.2398 51.8999C54.1498 49.8599 55.0998 47.02 55.0998 43.39C55.0998 40.79 54.6898 38.6699 53.8698 37.0199C53.0398 35.3699 51.8098 34.1 50.1598 33.19C48.5098 32.28 46.4298 31.82 43.9198 31.82H24.0298V54.9599Z" fill="#fff"/>
<path d="M114.9 104.62C107.1 104.62 100.47 103.34 95.0098 100.79C89.5498 98.24 85.3698 94.31 82.4698 89.03C79.5698 83.74 78.1098 76.99 78.1098 68.75C78.1098 60.69 79.5398 54.02 82.3998 48.73C85.2598 43.44 89.3798 39.4999 94.7498 36.8999C100.12 34.2999 106.58 33 114.12 33C121.57 33 127.88 34.2599 133.04 36.7699C138.2 39.2799 142.12 43.14 144.8 48.34C147.49 53.54 148.83 60.2599 148.83 68.4899V73.04H99.6898C99.6898 76.68 100.21 79.7599 101.25 82.2699C102.29 84.7799 103.89 86.6899 106.06 87.9899C108.23 89.2899 111.13 89.94 114.77 89.94C116.94 89.94 118.84 89.68 120.49 89.16C122.13 88.64 123.52 87.88 124.65 86.89C125.78 85.89 126.64 84.7 127.25 83.31C127.86 81.92 128.16 80.36 128.16 78.63H148.83C148.83 82.79 148.07 86.5 146.55 89.75C145.03 93 142.8 95.73 139.85 97.94C136.9 100.15 133.33 101.82 129.13 102.94C124.93 104.06 120.19 104.62 114.9 104.62ZM99.8198 61.2H127.12C127.12 58.95 126.84 56.98 126.27 55.28C125.71 53.59 124.88 52.18 123.8 51.06C122.72 49.94 121.42 49.0899 119.9 48.5199C118.38 47.9599 116.63 47.6799 114.63 47.6799C111.51 47.6799 108.91 48.1999 106.83 49.2399C104.75 50.2799 103.15 51.8 102.02 53.79C100.91 55.79 100.17 58.26 99.8198 61.2Z" fill="#fff"/>
<path d="M174.44 104.62C171.58 104.62 168.78 104.34 166.05 103.78C163.32 103.22 160.85 102.22 158.64 100.79C156.43 99.36 154.68 97.3899 153.38 94.8699C152.08 92.3599 151.43 89.2 151.43 85.38C151.43 80.44 152.47 76.41 154.55 73.29C156.63 70.17 159.64 67.72 163.59 65.94C167.53 64.16 172.3 62.93 177.89 62.23C183.48 61.54 189.74 61.19 196.68 61.19V56.8999C196.68 54.9099 196.29 53.2399 195.51 51.8999C194.73 50.5599 193.58 49.52 192.06 48.78C190.54 48.04 188.53 47.6799 186.02 47.6799C183.77 47.6799 181.79 47.9399 180.1 48.4599C178.41 48.9799 177.13 49.74 176.27 50.73C175.4 51.73 174.97 52.92 174.97 54.31V55.48H154.17C154.08 55.05 154.04 54.68 154.04 54.38C154.04 54.08 154.04 53.66 154.04 53.14C154.04 49.07 155.32 45.52 157.87 42.48C160.43 39.45 164.09 37.1099 168.86 35.4599C173.63 33.8099 179.39 32.9899 186.15 32.9899C192.48 32.9899 198 33.7699 202.73 35.3299C207.45 36.8899 211.18 39.28 213.91 42.48C216.64 45.69 218 49.89 218 55.09V84.34C218 85.81 218.41 86.98 219.24 87.85C220.06 88.72 221.08 89.1499 222.29 89.1499H226.71V102.28C225.76 102.71 224.26 103.21 222.23 103.78C220.19 104.34 217.74 104.62 214.88 104.62C211.93 104.62 209.36 104.25 207.15 103.52C204.94 102.79 203.12 101.74 201.69 100.4C200.26 99.0599 199.28 97.4799 198.77 95.6499H197.86C196.21 97.3799 194.28 98.9399 192.07 100.33C189.86 101.72 187.3 102.78 184.4 103.52C181.48 104.25 178.17 104.62 174.44 104.62ZM182.37 89.9299C184.45 89.9299 186.36 89.6299 188.09 89.0199C189.82 88.4099 191.32 87.57 192.57 86.48C193.83 85.4 194.82 84.0699 195.56 82.5199C196.3 80.9599 196.67 79.27 196.67 77.45V72.8999C191.73 72.8999 187.48 73.25 183.93 73.94C180.38 74.63 177.64 75.72 175.74 77.19C173.83 78.66 172.88 80.53 172.88 82.78C172.88 84.43 173.29 85.79 174.11 86.88C174.93 87.96 176.04 88.74 177.43 89.22C178.82 89.7 180.46 89.9299 182.37 89.9299Z" fill="#fff"/>
<path d="M277.92 103.06V85.64L268.43 76.41L253.22 103.06H228.91L254.13 61.72L201.74 0.459961H226.7L277.92 62.1099V8.80995H299.24V103.06H277.92Z" fill="#fff"/>
<path d="M0.759766 113.47H9.68977C10.7298 113.47 11.6098 113.64 12.3398 113.99C13.0698 114.34 13.6398 114.83 14.0398 115.47C14.4398 116.11 14.6398 116.87 14.6398 117.75C14.6398 118.42 14.5198 119.04 14.2898 119.61C14.0598 120.18 13.7298 120.66 13.3098 121.05C12.8898 121.44 12.3898 121.73 11.8198 121.92V122.02C12.4198 122.16 12.9798 122.4 13.4798 122.74C13.9798 123.09 14.3798 123.56 14.6798 124.15C14.9798 124.75 15.1298 125.5 15.1298 126.42C15.1298 127.59 14.8898 128.53 14.4198 129.24C13.9498 129.95 13.2998 130.46 12.4898 130.77C11.6798 131.08 10.7498 131.24 9.68977 131.24H0.759766V113.47ZM2.79977 121.23H9.37978C9.99978 121.23 10.5498 121.1 11.0198 120.85C11.4898 120.6 11.8698 120.24 12.1498 119.78C12.4298 119.31 12.5598 118.78 12.5598 118.17C12.5598 117.17 12.2898 116.43 11.7398 115.94C11.1998 115.46 10.4798 115.22 9.57977 115.22H2.79977V121.23ZM2.79977 129.46H9.81978C10.7898 129.46 11.5698 129.21 12.1598 128.72C12.7598 128.23 13.0498 127.4 13.0498 126.22C13.0498 125.48 12.9198 124.86 12.6598 124.38C12.3998 123.9 12.0198 123.54 11.5198 123.32C11.0198 123.1 10.3898 122.98 9.62978 122.98H2.79977V129.46Z" fill="#fff"/>
<path d="M21.0798 113.47H34.6698V115.23H23.1198V121.24H33.5298V123.03H23.1198V129.48H34.8198V131.24H21.0798V113.47Z" fill="#fff"/>
<path d="M45.9598 131.23V123.8L38.8898 113.47H41.1898L46.9598 121.99H47.0598L52.8098 113.47H55.0598L47.9898 123.8V131.23H45.9598Z" fill="#fff"/>
<path d="M67.5798 131.54C65.7498 131.54 64.1798 131.2 62.8498 130.52C61.5298 129.84 60.5198 128.82 59.8098 127.45C59.0998 126.09 58.7498 124.39 58.7498 122.35C58.7498 120.3 59.0998 118.59 59.8098 117.24C60.5198 115.89 61.5298 114.87 62.8498 114.19C64.1698 113.51 65.7498 113.17 67.5798 113.17C69.4298 113.17 71.0098 113.51 72.3298 114.19C73.6498 114.87 74.6598 115.89 75.3598 117.24C76.0598 118.6 76.4098 120.3 76.4098 122.35C76.4098 124.39 76.0598 126.09 75.3598 127.45C74.6598 128.81 73.6498 129.84 72.3298 130.52C71.0098 131.19 69.4198 131.54 67.5798 131.54ZM67.5798 129.78C68.5998 129.78 69.5198 129.65 70.3498 129.38C71.1798 129.11 71.8898 128.69 72.4698 128.1C73.0598 127.51 73.5098 126.77 73.8298 125.87C74.1498 124.97 74.3098 123.89 74.3098 122.63V122.09C74.3098 120.81 74.1498 119.73 73.8298 118.83C73.5098 117.93 73.0598 117.19 72.4698 116.6C71.8798 116.01 71.1798 115.59 70.3498 115.32C69.5198 115.05 68.5998 114.92 67.5798 114.92C66.5598 114.92 65.6398 115.05 64.8198 115.32C63.9998 115.59 63.2998 116.01 62.7098 116.6C62.1198 117.19 61.6698 117.93 61.3498 118.83C61.0298 119.73 60.8698 120.82 60.8698 122.09V122.63C60.8698 123.89 61.0298 124.97 61.3498 125.87C61.6698 126.77 62.1198 127.51 62.7098 128.1C63.2998 128.69 63.9998 129.11 64.8198 129.38C65.6398 129.64 66.5598 129.78 67.5798 129.78Z" fill="#fff"/>
<path d="M82.5198 131.23V113.47H84.5098L93.5998 125.74C93.6998 125.86 93.8298 126.03 93.9798 126.23C94.1298 126.44 94.2698 126.65 94.4198 126.86C94.5698 127.08 94.6898 127.27 94.7998 127.44H94.9298C94.9298 127.15 94.9298 126.86 94.9298 126.57C94.9298 126.28 94.9298 126 94.9298 125.73V113.46H96.9198V131.22H95.1298L85.8598 118.69C85.7398 118.52 85.5498 118.25 85.2898 117.87C85.0298 117.5 84.8098 117.18 84.6198 116.92H84.5198C84.5198 117.21 84.5198 117.5 84.5198 117.79C84.5198 118.08 84.5198 118.37 84.5198 118.68V131.21H82.5198V131.23Z" fill="#fff"/>
<path d="M103.93 131.23V113.47H110.32C112.22 113.47 113.83 113.78 115.15 114.39C116.47 115 117.48 115.96 118.18 117.26C118.88 118.56 119.23 120.26 119.23 122.35C119.23 124.4 118.88 126.09 118.18 127.4C117.48 128.71 116.47 129.68 115.15 130.3C113.83 130.92 112.22 131.23 110.32 131.23H103.93ZM105.97 129.46H110.24C111.29 129.46 112.24 129.34 113.09 129.08C113.94 128.83 114.66 128.43 115.26 127.89C115.86 127.35 116.32 126.64 116.63 125.78C116.94 124.92 117.1 123.87 117.1 122.65V122.11C117.1 120.85 116.94 119.78 116.63 118.91C116.32 118.04 115.87 117.33 115.27 116.79C114.67 116.25 113.95 115.85 113.11 115.6C112.26 115.35 111.31 115.22 110.24 115.22H105.97V129.46Z" fill="#fff"/>
<path d="M140.66 131.54C138.85 131.54 137.32 131.2 136.06 130.53C134.81 129.86 133.86 128.84 133.21 127.47C132.56 126.11 132.24 124.4 132.24 122.34C132.24 119.27 132.98 116.97 134.47 115.44C135.95 113.91 138.03 113.15 140.71 113.15C142.25 113.15 143.6 113.4 144.76 113.89C145.93 114.38 146.84 115.12 147.5 116.09C148.16 117.07 148.5 118.3 148.5 119.8H146.43C146.43 118.68 146.2 117.76 145.73 117.04C145.26 116.32 144.6 115.79 143.75 115.43C142.9 115.08 141.87 114.9 140.68 114.9C139.4 114.9 138.29 115.15 137.34 115.65C136.39 116.15 135.66 116.93 135.14 117.99C134.62 119.05 134.36 120.44 134.36 122.14V122.68C134.36 124.35 134.62 125.71 135.14 126.74C135.66 127.78 136.39 128.54 137.34 129.02C138.29 129.5 139.41 129.74 140.71 129.74C141.9 129.74 142.93 129.56 143.79 129.21C144.65 128.86 145.32 128.32 145.78 127.6C146.25 126.88 146.48 125.96 146.48 124.84H148.5C148.5 126.36 148.16 127.61 147.48 128.59C146.8 129.57 145.87 130.3 144.7 130.78C143.53 131.3 142.18 131.54 140.66 131.54Z" fill="#fff"/>
<path d="M154.49 131.23V113.47H163.81C164.98 113.47 165.95 113.69 166.72 114.13C167.49 114.57 168.07 115.17 168.46 115.93C168.85 116.69 169.04 117.55 169.04 118.52C169.04 119.78 168.75 120.85 168.17 121.72C167.59 122.59 166.83 123.21 165.88 123.57L169.66 131.23H167.41L163.86 123.93H156.53V131.23H154.49ZM156.53 122.16H163.6C164.65 122.16 165.48 121.84 166.09 121.19C166.69 120.54 167 119.65 167 118.51C167 117.82 166.87 117.23 166.61 116.75C166.35 116.27 165.97 115.89 165.47 115.62C164.97 115.35 164.35 115.22 163.61 115.22H156.54V122.16H156.53Z" fill="#fff"/>
<path d="M175.77 113.47H189.36V115.23H177.81V121.24H188.22V123.03H177.81V129.48H189.51V131.24H175.77V113.47Z" fill="#fff"/>
<path d="M193.53 131.23L200.6 113.47H203.34L210.43 131.23H208.23L206.37 126.54H197.46L195.62 131.23H193.53ZM198.16 124.78H205.67L203.34 118.85C203.29 118.71 203.21 118.51 203.11 118.23C203.01 117.95 202.89 117.64 202.76 117.29C202.63 116.94 202.5 116.58 202.37 116.22C202.24 115.86 202.12 115.53 201.99 115.24H201.81C201.71 115.57 201.57 115.96 201.41 116.4C201.25 116.85 201.08 117.29 200.92 117.73C200.76 118.17 200.61 118.55 200.49 118.86L198.16 124.78Z" fill="#fff"/>
<path d="M217.4 131.23V115.26H211.11V113.47H225.79V115.26H219.45V131.23H217.4Z" fill="#fff"/>
<path d="M230.88 131.23V113.47H232.93V131.23H230.88Z" fill="#fff"/>
<path d="M244.55 131.23L237.84 113.47H240.04L244.78 126.21C244.88 126.49 245 126.8 245.12 127.15C245.24 127.5 245.36 127.85 245.48 128.19C245.6 128.53 245.7 128.83 245.79 129.11H245.97C246.06 128.85 246.16 128.55 246.28 128.22C246.4 127.88 246.52 127.54 246.64 127.18C246.76 126.83 246.87 126.51 246.98 126.24L251.67 113.48H253.82L247.09 131.24H244.55V131.23Z" fill="#fff"/>
<path d="M258.77 131.23V113.47H260.82V131.23H258.77Z" fill="#fff"/>
<path d="M272.18 131.23V115.26H265.89V113.47H280.57V115.26H274.23V131.23H272.18Z" fill="#fff"/>
<path d="M290.12 131.23V123.8L283.05 113.47H285.35L291.12 121.99H291.22L296.97 113.47H299.22L292.15 123.8V131.23H290.12Z" fill="#fff"/>
</svg>
