<svg width="0" height="0" class="hidden">
  <symbol xmlns="http://www.w3.org/2000/svg" viewBox="0 0 15 15" id="peak-icon">
    <path fill="currentColor" d="M7.5 1c-.3 0-.4.2-.6.4l-5.8 9.5c-.1.1-.1.3-.1.4c0 .5.4.7.7.7h11.6c.4 0 .7-.2.7-.7c0-.2 0-.2-.1-.4L8.2 1.4C8 1.2 7.8 1 7.5 1zm0 1.5L10.8 8H10L8.5 6.5L7.5 8l-1-1.5L5 8h-.9z"></path>
  </symbol>
    <symbol xmlns="http://www.w3.org/2000/svg" viewBox="0 0 32 32" id="arrowright">
    <path fill="currentColor" d="M11.166 23.963L22.36 17.5c1.43-.824 1.43-2.175 0-3L11.165 8.037c-1.43-.826-2.598-.15-2.598 1.5v12.926c0 1.65 1.17 2.326 2.598 1.5z"></path>
  </symbol>
    <symbol xmlns="http://www.w3.org/2000/svg" viewBox="0 0 32 32" id="arrowleft">
    <path fill="currentColor" d="M20.834 8.037L9.64 14.5c-1.43.824-1.43 2.175 0 3l11.194 6.463c1.43.826 2.598.15 2.598-1.5V9.537c0-1.65-1.17-2.326-2.598-1.5z"></path>
  </symbol>
    <symbol xmlns="http://www.w3.org/2000/svg" viewBox="0 0 24 24" id="read-more-btn">
    <path fill="none" stroke="currentColor" stroke-linecap="round" stroke-linejoin="round" stroke-width="1.5" d="m9 5l2 2.333M9 19l6-7l-1.5-1.75"></path>
  </symbol>

   <symbol fill="none" xmlns="http://www.w3.org/2000/svg" viewBox="0 0 18 18" id="fb-icon">
    <path d="M17.7188 9.25C17.7188 4.43359 13.8164 0.53125 9 0.53125C4.18359 0.53125 0.28125 4.43359 0.28125 9.25C0.28125 13.6094 3.44531 17.2305 7.62891 17.8633V11.7812H5.41406V9.25H7.62891V7.35156C7.62891 5.17188 8.92969 3.94141 10.8984 3.94141C11.8828 3.94141 12.8672 4.11719 12.8672 4.11719V6.26172H11.7773C10.6875 6.26172 10.3359 6.92969 10.3359 7.63281V9.25H12.7617L12.375 11.7812H10.3359V17.8633C14.5195 17.2305 17.7188 13.6094 17.7188 9.25Z" fill="currentColor"></path>
  </symbol>

    <symbol fill="none" xmlns="http://www.w3.org/2000/svg" viewBox="0 0 16 16" id="linkedin-icon">
    <path d="M3.51562 16V5.48828H0.246094V16H3.51562ZM1.86328 4.08203C2.91797 4.08203 3.76172 3.20312 3.76172 2.14844C3.76172 1.12891 2.91797 0.285156 1.86328 0.285156C0.84375 0.285156 0 1.12891 0 2.14844C0 3.20312 0.84375 4.08203 1.86328 4.08203ZM15.7148 16H15.75V10.2344C15.75 7.42188 15.1172 5.24219 11.8125 5.24219C10.2305 5.24219 9.17578 6.12109 8.71875 6.92969H8.68359V5.48828H5.55469V16H8.82422V10.7969C8.82422 9.42578 9.07031 8.125 10.7578 8.125C12.4453 8.125 12.4805 9.67188 12.4805 10.9023V16H15.7148Z" fill="currentColor"></path>
  </symbol>

   <symbol xmlns="http://www.w3.org/2000/svg" viewBox="0 0 24 24" id="twitter-icon">
    <path fill="currentColor" d="M18.205 2.25h3.308l-7.227 8.26l8.502 11.24H16.13l-5.214-6.817L4.95 21.75H1.64l7.73-8.835L1.215 2.25H8.04l4.713 6.231l5.45-6.231Zm-1.161 17.52h1.833L7.045 4.126H5.078L17.044 19.77Z"></path>
  </symbol>
  
    <symbol xmlns="http://www.w3.org/2000/svg" viewBox="0 0 24 24" id="ig-icon">
    <path fill="currentColor" d="M7.8 2h8.4C19.4 2 22 4.6 22 7.8v8.4a5.8 5.8 0 0 1-5.8 5.8H7.8C4.6 22 2 19.4 2 16.2V7.8A5.8 5.8 0 0 1 7.8 2m-.2 2A3.6 3.6 0 0 0 4 7.6v8.8C4 18.39 5.61 20 7.6 20h8.8a3.6 3.6 0 0 0 3.6-3.6V7.6C20 5.61 18.39 4 16.4 4H7.6m9.65 1.5a1.25 1.25 0 0 1 1.25 1.25A1.25 1.25 0 0 1 17.25 8A1.25 1.25 0 0 1 16 6.75a1.25 1.25 0 0 1 1.25-1.25M12 7a5 5 0 0 1 5 5a5 5 0 0 1-5 5a5 5 0 0 1-5-5a5 5 0 0 1 5-5m0 2a3 3 0 0 0-3 3a3 3 0 0 0 3 3a3 3 0 0 0 3-3a3 3 0 0 0-3-3Z"></path>
  </symbol>
</svg>