<svg width="0" height="0" class="hidden">
  <symbol xmlns="http://www.w3.org/2000/svg" viewBox="0 0 15 15" id="peak-icon">
    <path fill="currentColor" d="M7.5 1c-.3 0-.4.2-.6.4l-5.8 9.5c-.1.1-.1.3-.1.4c0 .5.4.7.7.7h11.6c.4 0 .7-.2.7-.7c0-.2 0-.2-.1-.4L8.2 1.4C8 1.2 7.8 1 7.5 1zm0 1.5L10.8 8H10L8.5 6.5L7.5 8l-1-1.5L5 8h-.9z"></path>
  </symbol>
    <symbol xmlns="http://www.w3.org/2000/svg" viewBox="0 0 32 32" id="arrowright">
    <path fill="currentColor" d="M11.166 23.963L22.36 17.5c1.43-.824 1.43-2.175 0-3L11.165 8.037c-1.43-.826-2.598-.15-2.598 1.5v12.926c0 1.65 1.17 2.326 2.598 1.5z"></path>
  </symbol>
    <symbol xmlns="http://www.w3.org/2000/svg" viewBox="0 0 32 32" id="arrowleft">
    <path fill="currentColor" d="M20.834 8.037L9.64 14.5c-1.43.824-1.43 2.175 0 3l11.194 6.463c1.43.826 2.598.15 2.598-1.5V9.537c0-1.65-1.17-2.326-2.598-1.5z"></path>
  </symbol>
    <symbol xmlns="http://www.w3.org/2000/svg" viewBox="0 0 24 24" id="read-more-btn">
    <path fill="none" stroke="currentColor" stroke-linecap="round" stroke-linejoin="round" stroke-width="1.5" d="m9 5l2 2.333M9 19l6-7l-1.5-1.75"></path>
  </symbol>

   <symbol fill="none" xmlns="http://www.w3.org/2000/svg" viewBox="0 0 18 18" id="fb-icon">
    <path d="M17.7188 9.25C17.7188 4.43359 13.8164 0.53125 9 0.53125C4.18359 0.53125 0.28125 4.43359 0.28125 9.25C0.28125 13.6094 3.44531 17.2305 7.62891 17.8633V11.7812H5.41406V9.25H7.62891V7.35156C7.62891 5.17188 8.92969 3.94141 10.8984 3.94141C11.8828 3.94141 12.8672 4.11719 12.8672 4.11719V6.26172H11.7773C10.6875 6.26172 10.3359 6.92969 10.3359 7.63281V9.25H12.7617L12.375 11.7812H10.3359V17.8633C14.5195 17.2305 17.7188 13.6094 17.7188 9.25Z" fill="currentColor"></path>
  </symbol>

    <symbol fill="none" xmlns="http://www.w3.org/2000/svg" viewBox="0 0 16 16" id="linkedin-icon">
    <path d="M3.51562 16V5.48828H0.246094V16H3.51562ZM1.86328 4.08203C2.91797 4.08203 3.76172 3.20312 3.76172 2.14844C3.76172 1.12891 2.91797 0.285156 1.86328 0.285156C0.84375 0.285156 0 1.12891 0 2.14844C0 3.20312 0.84375 4.08203 1.86328 4.08203ZM15.7148 16H15.75V10.2344C15.75 7.42188 15.1172 5.24219 11.8125 5.24219C10.2305 5.24219 9.17578 6.12109 8.71875 6.92969H8.68359V5.48828H5.55469V16H8.82422V10.7969C8.82422 9.42578 9.07031 8.125 10.7578 8.125C12.4453 8.125 12.4805 9.67188 12.4805 10.9023V16H15.7148Z" fill="currentColor"></path>
  </symbol>

   <symbol xmlns="http://www.w3.org/2000/svg" viewBox="0 0 24 24" id="twitter-icon">
    <path fill="currentColor" d="M18.205 2.25h3.308l-7.227 8.26l8.502 11.24H16.13l-5.214-6.817L4.95 21.75H1.64l7.73-8.835L1.215 2.25H8.04l4.713 6.231l5.45-6.231Zm-1.161 17.52h1.833L7.045 4.126H5.078L17.044 19.77Z"></path>
  </symbol>
  
    <symbol xmlns="http://www.w3.org/2000/svg" viewBox="0 0 24 24" id="ig-icon">
    <path fill="currentColor" d="M7.8 2h8.4C19.4 2 22 4.6 22 7.8v8.4a5.8 5.8 0 0 1-5.8 5.8H7.8C4.6 22 2 19.4 2 16.2V7.8A5.8 5.8 0 0 1 7.8 2m-.2 2A3.6 3.6 0 0 0 4 7.6v8.8C4 18.39 5.61 20 7.6 20h8.8a3.6 3.6 0 0 0 3.6-3.6V7.6C20 5.61 18.39 4 16.4 4H7.6m9.65 1.5a1.25 1.25 0 0 1 1.25 1.25A1.25 1.25 0 0 1 17.25 8A1.25 1.25 0 0 1 16 6.75a1.25 1.25 0 0 1 1.25-1.25M12 7a5 5 0 0 1 5 5a5 5 0 0 1-5 5a5 5 0 0 1-5-5a5 5 0 0 1 5-5m0 2a3 3 0 0 0-3 3a3 3 0 0 0 3 3a3 3 0 0 0 3-3a3 3 0 0 0-3-3Z"></path>
  </symbol>

    <symbol fill="none" xmlns="http://www.w3.org/2000/svg" viewBox="0 0 16 16" id="mail-icon">
    <path d="M0.68225 5.14049L7.6175 0.982493C7.73406 0.912554 7.86744 0.87561 8.00338 0.87561C8.13931 0.87561 8.27269 0.912554 8.38925 0.982493L15.3177 5.14124C15.3733 5.17455 15.4194 5.2217 15.4513 5.27809C15.4832 5.33448 15.5 5.39819 15.5 5.46299V15C15.5 15.1989 15.421 15.3897 15.2803 15.5303C15.1397 15.671 14.9489 15.75 14.75 15.75H1.25C1.05109 15.75 0.860322 15.671 0.71967 15.5303C0.579018 15.3897 0.5 15.1989 0.5 15V5.46224C0.499986 5.39744 0.516768 5.33373 0.548709 5.27734C0.58065 5.22095 0.626659 5.1738 0.68225 5.14049ZM12.7595 6.18299L8.04575 10.2622L3.23525 6.17849L2.26475 7.32149L8.05475 12.2377L13.7405 7.31774L12.7595 6.18299Z" fill="currentColor"></path>
  </symbol>

    <symbol fill="none" xmlns="http://www.w3.org/2000/svg" viewBox="0 0 12 16" id="phone-icon">
    <path d="M1.5 0.5H10.5C10.6989 0.5 10.8897 0.579018 11.0303 0.71967C11.171 0.860322 11.25 1.05109 11.25 1.25V14.75C11.25 14.9489 11.171 15.1397 11.0303 15.2803C10.8897 15.421 10.6989 15.5 10.5 15.5H1.5C1.30109 15.5 1.11032 15.421 0.96967 15.2803C0.829018 15.1397 0.75 14.9489 0.75 14.75V1.25C0.75 1.05109 0.829018 0.860322 0.96967 0.71967C1.11032 0.579018 1.30109 0.5 1.5 0.5ZM6 11.75C5.80109 11.75 5.61032 11.829 5.46967 11.9697C5.32902 12.1103 5.25 12.3011 5.25 12.5C5.25 12.6989 5.32902 12.8897 5.46967 13.0303C5.61032 13.171 5.80109 13.25 6 13.25C6.19891 13.25 6.38968 13.171 6.53033 13.0303C6.67098 12.8897 6.75 12.6989 6.75 12.5C6.75 12.3011 6.67098 12.1103 6.53033 11.9697C6.38968 11.829 6.19891 11.75 6 11.75Z" fill="currentColor"></path>
  </symbol>

   <symbol fill="none" xmlns="http://www.w3.org/2000/svg" viewBox="0 0 36 36" id="service-card-icon">
    <path d="M20.9949 9.3301V1.33787C20.9949 0.922516 20.8094 0.550887 20.5172 0.306048C20.4527 0.253583 20.3838 0.205489 20.3111 0.161768C20.1256 0.0612096 19.9105 0 19.6824 0H1.31245C0.589526 0 0 0.59898 0 1.33787V34.6665C0 35.405 0.589526 36 1.31245 36H19.6824C20.4096 36 20.9953 35.4054 20.9953 34.6665V24.8642H19.1364V29.4987H1.85894V2.16857H19.1359V9.3301H20.9949ZM10.4953 30.666C11.5409 30.666 12.3843 31.5273 12.3843 32.5858C12.3843 33.6439 11.5409 34.5008 10.4953 34.5008C9.45393 34.5008 8.61052 33.6439 8.61052 32.5858C8.61052 31.5273 9.45393 30.666 10.4953 30.666Z" fill="#6854FC"></path>
    <path d="M14.3508 15.8316V21.782C14.3508 22.3019 13.9377 22.726 13.4257 22.726H7.56912C7.05705 22.726 6.63965 22.3019 6.63965 21.782V15.8316C6.63965 15.3113 7.05705 14.8872 7.56912 14.8872H13.4257C13.9377 14.8872 14.3508 15.3113 14.3508 15.8316Z" fill="#6854FC"></path>
    <path d="M36.0006 6.2959V14.1132C36.0006 14.7997 35.4537 15.3549 34.7828 15.3549H30.7766V11.8616C30.7766 10.4669 29.6578 9.33015 28.2851 9.33015H25.8711V6.2959C25.8711 5.61385 26.4176 5.05859 27.0889 5.05859H34.7828C35.4541 5.05859 36.0006 5.61385 36.0006 6.2959Z" fill="#6854FC"></path>
    <path d="M29.9154 11.8616V19.95H26.9849C25.9995 19.95 25.1992 20.7676 25.1992 21.7688V23.9899H17.9785C17.0749 23.9899 16.3477 23.251 16.3477 22.3328V11.8616C16.3477 10.9478 17.0749 10.2046 17.9785 10.2046H28.2845C29.1838 10.2046 29.9154 10.9478 29.9154 11.8616Z" fill="#6854FC"></path>
    <path d="M33.7664 21.7686V27.719C33.7664 28.2393 33.3533 28.6634 32.8413 28.6634H26.9847C26.4727 28.6634 26.0596 28.2393 26.0596 27.719V21.7686C26.0596 21.2483 26.4727 20.8242 26.9847 20.8242H32.8413C33.3533 20.8242 33.7664 21.2483 33.7664 21.7686Z" fill="#6854FC"></path>
  </symbol>

   <symbol fill="none" xmlns="http://www.w3.org/2000/svg" viewBox="0 0 28 30" id="process-steps-icon">
    <path d="M18.2444 19.161L9.92975 21.6189C10.3433 22.4181 10.982 23.0664 11.7489 23.4935V27.9328H10.3326C9.7725 27.9328 9.32123 28.3962 9.32123 28.9664C9.32123 29.5366 9.77358 30 10.3326 30H18.6785C19.2385 30 19.6898 29.5366 19.6898 28.9664C19.6898 28.3962 19.2374 27.9328 18.6785 27.9328H17.2622V22.3454C17.2622 22.3465 18.3198 21.292 18.2444 19.161ZM15.2384 27.9328H13.7726L13.7597 24.056C14.45 24.0384 15.2384 23.7863 15.2384 23.7863V27.9328ZM2.62533 11.4976L5.81227 9.84099L9.64864 19.5506L6.13322 20.5897C6.13322 20.5897 5.11004 20.9849 4.71477 19.4681L3.01522 20.1528C3.01522 20.1528 2.18268 20.516 1.70232 19.5694L0.0706203 15.3315C-0.134015 14.8009 0.121241 14.201 0.640369 13.9908L2.33669 13.3061C2.33777 13.305 1.66678 11.9962 2.62533 11.4976ZM16.9132 2.32401L20.8734 0.140139C21.7965 -0.368405 22.294 0.670697 22.294 0.670697L27.718 14.7261C28.0282 15.905 27.0308 16.1053 27.0308 16.1053L22.6742 17.2644C21.6317 17.5418 21.273 16.113 21.273 16.113L11.6024 18.9728L7.62383 8.89985L16.6741 4.19307C16.6741 4.19197 15.9256 2.86888 16.9132 2.32401Z" fill="#fff"></path>
  </symbol>
</svg>